<svg width="64" height="62" viewBox="0 0 64 62" fill="none" xmlns="http://www.w3.org/2000/svg">
<path d="M59.5333 26.7092C58.5368 26.7105 57.5699 27.0361 56.7891 27.6333C56.0083 28.2305 55.4592 29.0643 55.2307 29.9999H49.7085C49.4766 26.1749 47.9022 22.54 45.2441 19.6928L49.16 15.9157C50.0725 16.4698 51.1641 16.682 52.2279 16.5121C53.2918 16.3421 54.2541 15.8018 54.9327 14.9934C55.6113 14.1851 55.9591 13.1647 55.9102 12.1257C55.8613 11.0866 55.4191 10.1008 54.6673 9.35511C53.9156 8.60938 52.9064 8.15541 51.831 8.07914C50.7556 8.00288 49.6884 8.30961 48.8317 8.94128C47.975 9.57294 47.3881 10.4857 47.1822 11.5067C46.9762 12.5277 47.1656 13.5861 47.7143 14.4815L43.7708 18.2854C40.8039 15.7573 37.0358 14.2747 33.0822 14.08V8.75578C34.1415 8.54202 35.0827 7.96094 35.7275 7.12263C36.3724 6.28432 36.6761 5.24698 36.5812 4.20713C36.4863 3.16728 35.9992 2.19712 35.2124 1.48043C34.4256 0.763735 33.3935 0.350287 32.3118 0.318398C31.2301 0.28651 30.1739 0.638395 29.3431 1.3074C28.5124 1.9764 27.9649 2.91606 27.8043 3.94839C27.6437 4.98071 27.8812 6.03399 28.4717 6.90873C29.0623 7.78346 29.965 8.41889 31.0088 8.69465V14.0959C27.0936 14.3451 23.379 15.8565 20.4617 18.3874L16.5506 14.6148C17.0948 13.796 17.3324 12.8224 17.2241 11.8554C17.1159 10.8884 16.6681 9.98621 15.9552 9.2984C15.3716 8.73623 14.6364 8.3429 13.8329 8.16297C13.0295 7.98304 12.1898 8.02369 11.4091 8.28031C10.6283 8.53693 9.93767 8.99928 9.41528 9.615C8.8929 10.2307 8.55967 10.9752 8.45332 11.7642C8.34697 12.5532 8.47176 13.3551 8.81354 14.0792C9.15533 14.8033 9.70046 15.4206 10.3872 15.8613C11.074 16.302 11.8749 16.5484 12.6994 16.5726C13.5238 16.5968 14.3388 16.3979 15.0521 15.9984L19.0016 19.8079C16.3763 22.6705 14.8364 26.308 14.6339 30.1249H9.1488C8.93449 29.1015 8.33849 28.1894 7.4737 27.5615C6.60892 26.9335 5.53541 26.6333 4.45653 26.7177C3.37764 26.8021 2.36831 27.2652 1.61972 28.0194C0.87113 28.7735 0.435273 29.7663 0.39471 30.8097C0.354148 31.853 0.711697 32.8745 1.39963 33.6806C2.08756 34.4867 3.0581 35.0214 4.1274 35.1835C5.19671 35.3456 6.29051 35.1238 7.20162 34.5601C8.11273 33.9964 8.77787 33.13 9.07105 32.1249H14.6501C14.9077 35.8919 16.4673 39.4668 19.0796 42.2779L15.1905 46.0293C14.2781 45.4753 13.1868 45.2632 12.1231 45.4332C11.0595 45.6032 10.0974 46.1434 9.41895 46.9517C8.74053 47.76 8.39288 48.7801 8.44184 49.819C8.4908 50.8579 8.93295 51.8434 9.6846 52.589C10.4362 53.3345 11.4452 53.7884 12.5204 53.8646C13.5957 53.9408 14.6626 53.6341 15.5191 53.0025C16.3757 52.371 16.9625 51.4584 17.1683 50.4375C17.3742 49.4167 17.1849 48.3585 16.6362 47.4633L20.5498 43.6883C23.4876 46.2031 27.2173 47.691 31.1383 47.9124V53.2185C30.0867 53.4633 29.1647 54.0716 28.5469 54.9282C27.9291 55.7848 27.6584 56.8302 27.7862 57.8664C27.914 58.9025 28.4313 59.8576 29.2402 60.5505C30.049 61.2434 31.0933 61.6261 32.1751 61.6261C33.2569 61.6261 34.3011 61.2434 35.11 60.5505C35.9188 59.8576 36.4361 58.9025 36.5639 57.8664C36.6917 56.8302 36.421 55.7848 35.8032 54.9282C35.1854 54.0716 34.2634 53.4633 33.2118 53.2185V47.9124C37.1674 47.6893 40.9273 46.1774 43.876 43.6243L47.7683 47.3788C47.1959 48.2646 46.9801 49.3221 47.1619 50.3511C47.3437 51.3801 47.9104 52.309 48.7547 52.962C49.599 53.6149 50.6622 53.9464 51.743 53.8938C52.8237 53.8412 53.847 53.4081 54.6188 52.6765C55.3907 51.9449 55.8576 50.9656 55.931 49.9242C56.0045 48.8828 55.6794 47.8516 55.0174 47.0259C54.3554 46.2002 53.4024 45.6374 52.339 45.444C51.2755 45.2507 50.1755 45.4403 49.2473 45.9769L45.3374 42.2054C47.9399 39.3728 49.4795 35.7784 49.7085 31.9999H55.2446C55.4443 32.7754 55.8659 33.4811 56.4613 34.0366C57.0567 34.5921 57.802 34.975 58.6121 35.1416C59.4222 35.3083 60.2646 35.252 61.0432 34.9791C61.8218 34.7063 62.5051 34.2279 63.0154 33.5985C63.5257 32.9691 63.8424 32.214 63.9292 31.4194C64.0161 30.6248 63.8697 29.8226 63.5068 29.1044C63.1438 28.3861 62.5789 27.7807 61.8765 27.3572C61.1741 26.9337 60.3624 26.7092 59.534 26.7092H59.5333ZM49.8611 10.7124C50.2449 10.342 50.7499 10.1114 51.2902 10.06C51.8305 10.0085 52.3725 10.1394 52.824 10.4302C53.2754 10.7211 53.6084 11.154 53.7661 11.655C53.9237 12.1561 53.8964 12.6945 53.6887 13.1783C53.481 13.6621 53.1058 14.0615 52.627 14.3084C52.1483 14.5553 51.5956 14.6345 51.0631 14.5323C50.5306 14.4302 50.0513 14.1531 49.7069 13.7483C49.3625 13.3435 49.1742 12.8361 49.1742 12.3124C49.1738 12.0152 49.2343 11.7209 49.3522 11.4463C49.47 11.1717 49.643 10.9223 49.8611 10.7124ZM29.8287 4.58328C29.8287 4.13564 29.9663 3.69806 30.2241 3.32585C30.4819 2.95364 30.8483 2.66354 31.2771 2.49222C31.7058 2.3209 32.1776 2.27606 32.6327 2.36338C33.0879 2.45069 33.506 2.66623 33.8341 2.98275C34.1623 3.29927 34.3858 3.70254 34.4763 4.14157C34.5669 4.5806 34.5204 5.03567 34.3428 5.44923C34.1652 5.8628 33.8645 6.21627 33.4786 6.46497C33.0928 6.71366 32.6391 6.8464 32.1751 6.8464C31.553 6.84574 30.9566 6.6071 30.5168 6.18283C30.0769 5.75856 29.8294 5.18331 29.8287 4.58328ZM11.1708 13.9124C10.8427 13.5959 10.6192 13.1926 10.5287 12.7536C10.4381 12.3146 10.4846 11.8595 10.6622 11.4459C10.8398 11.0324 11.1405 10.6789 11.5264 10.4302C11.9122 10.1815 12.3659 10.0488 12.8299 10.0488C13.294 10.0488 13.7476 10.1815 14.1335 10.4302C14.5193 10.6789 14.8201 11.0324 14.9977 11.4459C15.1753 11.8595 15.2217 12.3146 15.1312 12.7536C15.0407 13.1926 14.8172 13.5959 14.4891 13.9124C14.2723 14.1244 14.0139 14.2927 13.7291 14.4076C13.4443 14.5225 13.1387 14.5817 12.8299 14.5817C12.5212 14.5817 12.2156 14.5225 11.9307 14.4076C11.6459 14.2927 11.3876 14.1244 11.1708 13.9124ZM4.81688 33.2358C4.35279 33.2358 3.89912 33.103 3.51325 32.8543C3.12737 32.6056 2.82662 32.2521 2.64902 31.8386C2.47142 31.425 2.42495 30.9699 2.51549 30.5308C2.60603 30.0918 2.82951 29.6885 3.15767 29.372C3.48583 29.0554 3.90393 28.8399 4.35911 28.7525C4.81428 28.6652 5.28608 28.71 5.71484 28.8813C6.1436 29.0526 6.51007 29.3427 6.76791 29.7149C7.02574 30.0872 7.16336 30.5248 7.16336 30.9724C7.16271 31.5725 6.91528 32.1478 6.47537 32.5722C6.03546 32.9965 5.43901 33.2351 4.81688 33.2358ZM14.4891 51.2327C14.1654 51.5459 13.7537 51.7609 13.3048 51.851C12.8559 51.9411 12.3895 51.9024 11.9631 51.7398C11.5368 51.5771 11.1691 51.2975 10.9056 50.9356C10.6421 50.5736 10.4943 50.1452 10.4803 49.7031C10.4664 49.2611 10.587 48.8247 10.8273 48.448C11.0675 48.0714 11.4169 47.7708 11.8322 47.5834C12.2475 47.3961 12.7107 47.3302 13.1644 47.3938C13.6181 47.4575 14.0426 47.6479 14.3854 47.9417C14.4553 48.0437 14.5445 48.132 14.6485 48.202C15.0158 48.6365 15.2028 49.187 15.1734 49.7469C15.144 50.3068 14.9 50.8362 14.4891 51.2327ZM34.5214 57.3617C34.5218 57.8016 34.3892 58.2321 34.1399 58.6005C33.8906 58.9689 33.5354 59.2592 33.1177 59.436C32.7001 59.6127 32.2381 59.6682 31.7882 59.5957C31.3384 59.5232 30.9202 59.3257 30.5848 59.0276C30.2495 58.7294 30.0115 58.3434 29.8999 57.9168C29.7884 57.4903 29.8082 57.0416 29.9569 56.6257C30.1056 56.2098 30.3767 55.8447 30.7371 55.575C31.0975 55.3054 31.5315 55.143 31.9861 55.1075C32.1109 55.1307 32.2392 55.1307 32.364 55.1075C32.9512 55.1537 33.499 55.411 33.8986 55.8286C34.2983 56.2462 34.5206 56.7934 34.5214 57.3617ZM51.5202 47.3703C52.0626 47.3706 52.5881 47.5523 53.0072 47.8844C53.4263 48.2166 53.713 48.6786 53.8185 49.1918C53.924 49.705 53.8418 50.2376 53.5859 50.6988C53.33 51.1601 52.9162 51.5215 52.415 51.7215C51.9138 51.9215 51.3562 51.9477 50.8372 51.7956C50.3183 51.6435 49.87 51.3226 49.5689 50.8875C49.2677 50.4523 49.1323 49.93 49.1856 49.4093C49.239 48.8887 49.4778 48.402 49.8615 48.0322C50.0791 47.8219 50.3377 47.6552 50.6224 47.5416C50.907 47.428 51.2122 47.3698 51.5202 47.3703ZM32.1751 45.9422C29.1113 45.9422 26.1163 45.0658 23.5688 43.4239C21.0213 41.7821 19.0358 39.4484 17.8634 36.7181C16.6909 33.9877 16.3841 30.9833 16.9818 28.0848C17.5796 25.1863 19.0549 22.5238 21.2214 20.4341C23.3878 18.3444 26.148 16.9213 29.1529 16.3448C32.1579 15.7682 35.2726 16.0641 38.1032 17.1951C40.9338 18.326 43.3531 20.2412 45.0553 22.6984C46.7574 25.1557 47.666 28.0446 47.666 30.9999C47.6613 34.9615 46.0278 38.7595 43.1237 41.5607C40.2196 44.362 36.2821 45.9377 32.1751 45.9422ZM59.5333 33.2358C59.0692 33.2358 58.6155 33.1031 58.2296 32.8544C57.8437 32.6057 57.5429 32.2522 57.3653 31.8386C57.1877 31.4251 57.1412 30.97 57.2317 30.5309C57.3222 30.0919 57.5457 29.6886 57.8739 29.372C58.202 29.0555 58.6201 28.8399 59.0753 28.7525C59.5305 28.6652 60.0023 28.71 60.4311 28.8813C60.8598 29.0526 61.2263 29.3427 61.4841 29.7149C61.742 30.0871 61.8796 30.5247 61.8796 30.9724C61.8789 31.5725 61.6315 32.1478 61.1916 32.5721C60.7518 32.9964 60.1553 33.2351 59.5333 33.2358Z" fill="white"/>
<path d="M32.1751 24.2705C33.035 24.2715 33.8594 24.6014 34.4675 25.1879C35.0755 25.7744 35.4176 26.5697 35.4186 27.3991C35.4186 27.6643 35.5278 27.9187 35.7222 28.1062C35.9167 28.2938 36.1803 28.3991 36.4553 28.3991C36.7303 28.3991 36.994 28.2938 37.1884 28.1062C37.3828 27.9187 37.492 27.6643 37.492 27.3991C37.4903 26.1912 37.0472 25.0226 36.2407 24.0985C35.4342 23.1745 34.3159 22.5542 33.0822 22.3468V21C33.0822 20.7348 32.973 20.4804 32.7786 20.2929C32.5841 20.1054 32.3205 20 32.0455 20C31.7705 20 31.5069 20.1054 31.3124 20.2929C31.118 20.4804 31.0088 20.7348 31.0088 21V22.3964C29.7322 22.6732 28.6063 23.3944 27.8465 24.4219C27.0868 25.4495 26.7465 26.7112 26.8909 27.9656C27.0353 29.22 27.6542 30.379 28.6292 31.2207C29.6041 32.0624 30.8666 32.5278 32.1751 32.5277C32.8166 32.5277 33.4437 32.7112 33.9771 33.055C34.5105 33.3988 34.9262 33.8874 35.1717 34.4591C35.4172 35.0308 35.4814 35.6598 35.3563 36.2667C35.2311 36.8736 34.9222 37.4311 34.4686 37.8686C34.015 38.3062 33.437 38.6042 32.8079 38.7249C32.1787 38.8456 31.5265 38.7836 30.9339 38.5468C30.3412 38.3101 29.8346 37.909 29.4782 37.3945C29.1218 36.88 28.9316 36.2752 28.9316 35.6564C28.9316 35.3912 28.8224 35.1368 28.6279 34.9493C28.4335 34.7617 28.1698 34.6564 27.8949 34.6564C27.6199 34.6564 27.3562 34.7617 27.1618 34.9493C26.9674 35.1368 26.8582 35.3912 26.8582 35.6564C26.8598 36.8206 27.2715 37.9497 28.0256 38.8586C28.7797 39.7676 29.8316 40.4025 31.0088 40.6592V42.25C31.0088 42.5152 31.118 42.7696 31.3124 42.9571C31.5069 43.1446 31.7705 43.25 32.0455 43.25C32.3205 43.25 32.5841 43.1446 32.7786 42.9571C32.973 42.7696 33.0822 42.5152 33.0822 42.25V40.7089C34.394 40.4899 35.5728 39.8041 36.3857 38.7872C37.1986 37.7703 37.5864 36.4962 37.4724 35.2168C37.3584 33.9374 36.751 32.7458 35.7701 31.8775C34.7892 31.0093 33.5064 30.5276 32.1751 30.5278C31.3149 30.5278 30.4899 30.1981 29.8816 29.6114C29.2733 29.0247 28.9316 28.2289 28.9316 27.3991C28.9316 26.5694 29.2733 25.7736 29.8816 25.1869C30.4899 24.6001 31.3149 24.2705 32.1751 24.2705Z" fill="white"/>
</svg>
