<svg width="64" height="64" viewBox="0 0 64 64" fill="none" xmlns="http://www.w3.org/2000/svg">
<path d="M31.2311 62.6409C31.3249 62.7538 31.4425 62.8446 31.5754 62.907C31.7083 62.9693 31.8533 63.0016 32.0001 63.0016C32.1469 63.0016 32.2919 62.9693 32.4248 62.907C32.5577 62.8446 32.6752 62.7538 32.7691 62.6409L62.7691 26.6409C62.9166 26.4637 62.9983 26.2411 63.0005 26.0105C63.0027 25.78 62.9252 25.5558 62.7811 25.3759L54.7811 15.3759C54.6723 15.2425 54.5312 15.1392 54.3711 15.0759L44.3711 11.0759C44.2534 11.0272 44.1275 11.0014 44.0001 10.9999H24.1901C23.4579 10.7363 22.802 10.2963 22.2805 9.71878C21.759 9.14126 21.3879 8.44405 21.2001 7.6889L20.9671 6.7569C20.9129 6.54067 20.788 6.34875 20.6123 6.21161C20.4365 6.07448 20.22 6 19.9971 6C19.7742 6 19.5576 6.07448 19.3819 6.21161C19.2062 6.34875 19.0813 6.54067 19.0271 6.7569L18.7941 7.6889C18.6017 8.46673 18.2152 9.18308 17.6708 9.77102C17.1264 10.359 16.4418 10.7993 15.6811 11.0509C15.5107 11.1068 15.3586 11.2079 15.241 11.3432C15.1234 11.4785 15.0445 11.6432 15.0128 11.8197C14.9812 11.9962 14.9978 12.178 15.0611 12.3458C15.1243 12.5136 15.2318 12.6612 15.3721 12.7729L9.62608 15.0729C9.466 15.1362 9.32483 15.2395 9.21608 15.3729L1.21608 25.3729C1.07196 25.5528 0.99444 25.777 0.996627 26.0075C0.998814 26.2381 1.08058 26.4607 1.22808 26.6379L31.2311 62.6409ZM12.0001 28.0219C11.5328 27.2291 10.9075 26.5409 10.1631 25.9999C10.9075 25.4589 11.5328 24.7707 12.0001 23.9779C12.4673 24.7707 13.0926 25.4589 13.8371 25.9999C13.0926 26.5409 12.4673 27.2291 12.0001 28.0219ZM10.8761 30.6279L11.0301 31.2429C11.0843 31.4591 11.2091 31.6511 11.3849 31.7882C11.5606 31.9254 11.7772 31.9999 12.0001 31.9999C12.1864 31.9984 12.3686 31.9443 12.5255 31.8438C12.6824 31.7433 12.8078 31.6005 12.8871 31.4319L16.2731 32.7869L27.2501 54.7379L5.30008 28.3999L10.8761 30.6279ZM20.7801 20.9999H43.2201L45.7201 30.9999H18.2791L20.7801 20.9999ZM58.7001 28.3999L36.7501 54.7379L47.7271 32.7869L58.7001 28.3999ZM32.0001 59.7639L18.6161 32.9999H45.3841L32.0001 59.7639ZM60.3771 25.5729L47.6941 30.6459L45.1821 20.5999L53.6821 17.1999L60.3771 25.5729ZM24.1901 12.9999H43.8081L51.3081 15.9999L43.8081 18.9999H20.1931L12.6931 15.9999L17.5101 14.0729C18.1389 14.6851 18.5855 15.4599 18.8001 16.3109L19.0331 17.2429C19.0873 17.4591 19.2122 17.651 19.3879 17.7882C19.5636 17.9253 19.7802 17.9998 20.0031 17.9998C20.226 17.9998 20.4425 17.9253 20.6183 17.7882C20.794 17.651 20.9189 17.4591 20.9731 17.2429L21.2061 16.3109C21.3933 15.5564 21.7635 14.8596 22.2839 14.2821C22.8044 13.7047 23.459 13.2643 24.1901 12.9999ZM20.0001 9.97789C20.4673 10.7707 21.0926 11.4589 21.8371 11.9999C21.0926 12.5409 20.4673 13.2291 20.0001 14.0219C19.5328 13.2291 18.9075 12.5409 18.1631 11.9999C18.9075 11.4589 19.5328 10.7707 20.0001 9.97789ZM10.3171 17.1999L18.8171 20.5999L16.3061 30.6459L13.4861 29.5179C13.7529 28.9162 14.1425 28.3769 14.6298 27.9345C15.1171 27.4922 15.6915 27.1564 16.3161 26.9489C16.5161 26.8831 16.6903 26.7559 16.8138 26.5853C16.9373 26.4147 17.0038 26.2095 17.0038 25.9989C17.0038 25.7883 16.9373 25.5831 16.8138 25.4125C16.6903 25.2419 16.5161 25.1147 16.3161 25.0489C15.555 24.7979 14.87 24.3581 14.3251 23.7705C13.7801 23.1829 13.3931 22.4667 13.2001 21.6889L12.9671 20.7569C12.9129 20.5407 12.788 20.3487 12.6123 20.2116C12.4365 20.0745 12.22 20 11.9971 20C11.7742 20 11.5576 20.0745 11.3819 20.2116C11.2062 20.3487 11.0813 20.5407 11.0271 20.7569L10.7941 21.6889C10.6017 22.4667 10.2152 23.1831 9.67079 23.771C9.12639 24.359 8.44183 24.7993 7.68108 25.0509C7.48101 25.1167 7.30681 25.2439 7.18331 25.4145C7.05982 25.5851 6.99333 25.7903 6.99333 26.0009C6.99333 26.2115 7.05982 26.4167 7.18331 26.5873C7.30681 26.7579 7.48101 26.8851 7.68108 26.9509C8.25234 27.1403 8.78241 27.4366 9.24308 27.8239L3.62008 25.5739L10.3171 17.1999ZM58.2001 2.68889L57.9671 1.7569C57.9129 1.54067 57.788 1.34875 57.6123 1.21161C57.4365 1.07448 57.22 1 56.9971 1C56.7742 1 56.5576 1.07448 56.3819 1.21161C56.2062 1.34875 56.0813 1.54067 56.0271 1.7569L55.7941 2.68889C55.6017 3.46672 55.2152 4.18308 54.6708 4.77102C54.1264 5.35897 53.4418 5.79931 52.6811 6.0509C52.481 6.11665 52.3068 6.2439 52.1833 6.41449C52.0598 6.58507 51.9933 6.7903 51.9933 7.0009C51.9933 7.21149 52.0598 7.41672 52.1833 7.5873C52.3068 7.75789 52.481 7.88514 52.6811 7.9509C53.4427 8.20145 54.1283 8.6411 54.6738 9.22873C55.2193 9.81636 55.6068 10.5328 55.8001 11.3109L56.0331 12.2429C56.0873 12.4591 56.2122 12.651 56.3879 12.7882C56.5636 12.9253 56.7802 12.9998 57.0031 12.9998C57.226 12.9998 57.4425 12.9253 57.6183 12.7882C57.794 12.651 57.9189 12.4591 57.9731 12.2429L58.2061 11.3109C58.3985 10.5331 58.785 9.81671 59.3294 9.22877C59.8738 8.64082 60.5583 8.20048 61.3191 7.94889C61.5191 7.88314 61.6933 7.75589 61.8168 7.5853C61.9403 7.41472 62.0068 7.20949 62.0068 6.9989C62.0068 6.7883 61.9403 6.58307 61.8168 6.41249C61.6933 6.2419 61.5191 6.11465 61.3191 6.04889C60.5575 5.79834 59.8718 5.35869 59.3263 4.77106C58.7809 4.18343 58.3934 3.46703 58.2001 2.68889ZM57.0001 9.0219C56.5328 8.22911 55.9075 7.54086 55.1631 6.9999C55.9075 6.45893 56.5328 5.77068 57.0001 4.9779C57.4673 5.77068 58.0926 6.45893 58.8371 6.9999C58.0926 7.54086 57.4673 8.22911 57.0001 9.0219ZM45.8001 58.3109L46.0331 59.2429C46.0873 59.4591 46.2122 59.651 46.3879 59.7882C46.5636 59.9253 46.7802 59.9998 47.0031 59.9998C47.226 59.9998 47.4425 59.9253 47.6183 59.7882C47.794 59.651 47.9189 59.4591 47.9731 59.2429L48.2061 58.3099C48.3989 57.5323 48.7856 56.8161 49.3299 56.2282C49.8742 55.6404 50.5586 55.1999 51.3191 54.9479C51.5191 54.8821 51.6933 54.7549 51.8168 54.5843C51.9403 54.4137 52.0068 54.2085 52.0068 53.9979C52.0068 53.7873 51.9403 53.5821 51.8168 53.4115C51.6933 53.2409 51.5191 53.1137 51.3191 53.0479C50.5578 52.797 49.8725 52.3574 49.3271 51.77C48.7817 51.1826 48.3939 50.4667 48.2001 49.6889L47.9671 48.7569C47.9129 48.5407 47.788 48.3487 47.6123 48.2116C47.4365 48.0745 47.22 48 46.9971 48C46.7742 48 46.5576 48.0745 46.3819 48.2116C46.2062 48.3487 46.0813 48.5407 46.0271 48.7569L45.7941 49.6899C45.6012 50.4675 45.2146 51.1837 44.6703 51.7715C44.1259 52.3594 43.4416 52.7999 42.6811 53.0519C42.481 53.1177 42.3068 53.2449 42.1833 53.4155C42.0598 53.5861 41.9933 53.7913 41.9933 54.0019C41.9933 54.2125 42.0598 54.4177 42.1833 54.5883C42.3068 54.7589 42.481 54.8861 42.6811 54.9519C43.4424 55.2028 44.1277 55.6424 44.6731 56.2298C45.2185 56.8172 45.6062 57.5331 45.8001 58.3109ZM47.0001 51.9779C47.4673 52.7707 48.0926 53.4589 48.8371 53.9999C48.0926 54.5409 47.4673 55.2291 47.0001 56.0219C46.5328 55.2291 45.9075 54.5409 45.1631 53.9999C45.9075 53.4589 46.5328 52.7707 47.0001 51.9779Z" fill="white"/>
</svg>
