<svg width="24" height="25" viewBox="0 0 24 25" fill="none" xmlns="http://www.w3.org/2000/svg">
<path d="M20.5868 6.39455C17.793 4.30415 15.1165 4.36271 15.1165 4.36271L14.8429 4.67519C18.1643 5.67167 19.7077 7.13687 19.7077 7.13687C14.9559 4.52063 8.90314 4.53935 3.96058 7.13687C3.96058 7.13687 5.56258 5.59343 9.0793 4.59695L8.88394 4.36247C8.88394 4.36247 6.2269 4.30391 3.41362 6.39431C3.41362 6.39431 0.600342 11.4545 0.600342 17.6868C0.600342 17.6868 2.24146 20.5001 6.5593 20.6369C6.5593 20.6369 7.28218 19.7772 7.86826 19.0349C5.3869 18.2926 4.44922 16.7491 4.44922 16.7491C6.00802 17.7245 7.58434 18.335 9.5485 18.7224C12.7443 19.3802 16.7195 18.7039 19.6883 16.7491C19.6883 16.7491 18.7115 18.3317 16.1521 19.0546C16.7382 19.7774 17.4416 20.6174 17.4416 20.6174C21.759 20.4809 23.4001 17.6676 23.4001 17.687C23.4001 11.4547 20.5868 6.39455 20.5868 6.39455ZM8.35642 15.8702C7.26226 15.8702 6.3637 14.9129 6.3637 13.721C6.44362 10.867 10.2894 10.8758 10.3494 13.721C10.3491 14.9129 9.47002 15.8702 8.35642 15.8702ZM15.4875 15.8702C14.3934 15.8702 13.4948 14.9129 13.4948 13.721C13.5827 10.8725 17.3804 10.8713 17.4805 13.721C17.4803 14.9129 16.6011 15.8702 15.4875 15.8702Z" fill="#8551C0"/>
</svg>
