<svg width="64" height="64" viewBox="0 0 64 64" fill="none" xmlns="http://www.w3.org/2000/svg">
<path d="M42.24 3.19995C32 3.19995 23.68 11.52 23.68 21.76C23.68 22.464 23.744 23.104 23.808 23.808C23.168 23.744 22.464 23.68 21.76 23.68C11.52 23.68 3.19995 32 3.19995 42.24C3.19995 52.4799 11.52 60.7999 21.76 60.7999C32 60.7999 40.32 52.4799 40.32 42.24C40.32 41.5359 40.256 40.896 40.192 40.192C40.832 40.256 41.5359 40.32 42.24 40.32C52.4799 40.32 60.7999 32 60.7999 21.76C60.7999 11.52 52.4799 3.19995 42.24 3.19995ZM21.76 58.2399C12.928 58.2399 5.75995 51.0719 5.75995 42.24C5.75995 33.4079 12.928 26.24 21.76 26.24C30.592 26.24 37.7599 33.4079 37.7599 42.24C37.7599 51.0719 30.592 58.2399 21.76 58.2399ZM42.24 37.7599C41.408 37.7599 40.5119 37.6959 39.7439 37.568C39.2319 35.584 38.4 33.6639 37.248 32C37.248 31.936 37.1839 31.872 37.1199 31.872C37.1839 29.1199 39.4879 26.88 42.24 26.88C45.056 26.88 47.36 29.184 47.36 32C47.36 32.704 47.936 33.28 48.6399 33.28C49.3439 33.28 49.9199 32.704 49.9199 32C49.9199 27.776 46.464 24.32 42.24 24.32C38.976 24.32 36.16 26.368 35.072 29.312C32.768 26.944 29.76 25.152 26.4319 24.256C26.3039 23.424 26.24 22.592 26.24 21.76C26.24 12.928 33.4079 5.75995 42.24 5.75995C51.0719 5.75995 58.2399 12.928 58.2399 21.76C58.2399 30.592 51.0719 37.7599 42.24 37.7599ZM29.44 46.72C29.44 50.944 25.9839 54.3999 21.76 54.3999C17.536 54.3999 14.08 50.944 14.08 46.72C14.08 46.0159 14.656 45.4399 15.36 45.4399C16.064 45.4399 16.64 46.0159 16.64 46.72C16.64 49.5359 18.944 51.84 21.76 51.84C24.576 51.84 26.88 49.5359 26.88 46.72C26.88 46.0159 27.4559 45.4399 28.16 45.4399C28.864 45.4399 29.44 46.0159 29.44 46.72Z" fill="white"/>
</svg>
