<svg width="768" height="288" viewBox="0 0 768 288" fill="none" xmlns="http://www.w3.org/2000/svg">
<g style="mix-blend-mode:overlay">
<path d="M402.066 0.5H402.566H471.766H472.267L472.266 1.00121L471.866 166.6L402.066 0.5ZM402.066 0.5V1M402.066 0.5V1M402.066 1V162.6C402.066 182.143 398.009 196.708 389.981 206.381C381.968 216.036 369.928 220.9 353.766 220.9C337.603 220.9 325.564 216.036 317.55 206.381C309.522 196.708 305.466 182.143 305.466 162.6V1V0.5H304.966H235.766H235.264L235.266 1.00121L235.666 166.6L402.066 1ZM438.566 255.4L438.91 255.762C417.201 276.399 388.804 286.7 353.766 286.7C318.728 286.7 290.198 276.399 268.223 255.765L268.219 255.76C246.496 234.842 235.666 205.096 235.666 166.601L438.566 255.4ZM438.566 255.4L438.91 255.762M438.566 255.4L438.91 255.762M438.91 255.762C460.901 234.844 471.865 205.098 471.866 166.601L438.91 255.762ZM193.8 66.3H194.3V65.8V1V0.5H193.8H1H0.5V1V281V281.5H1H69H69.5V281V175.5H182.6H183.1V175V110.2V109.7H182.6H69.5V66.3H193.8ZM766.103 281.5H767.011L766.526 280.733L677.893 140.598L764.528 1.26401L765.003 0.5H764.103H683.303H683.017L682.872 0.746865L636.103 80.4124L612.934 40.9469L589.334 0.746865L589.189 0.5H588.903H508.103H507.194L507.681 1.26771L592.714 135.404L503.277 280.738L502.808 281.5H503.703H584.503H584.794L584.938 281.247L634.11 194.799L684.872 281.253L685.017 281.5H685.303H766.103Z" stroke="white"/>
</g>
</svg>
