<svg width="81" height="80" viewBox="0 0 81 80" fill="none" xmlns="http://www.w3.org/2000/svg">
<rect x="1" y="0.5" width="79" height="79" rx="7.5" fill="white"/>
<g clip-path="url(#clip0_72_238)">
<path d="M64.5 48.0937V38.6643C64.4971 34.4124 63.3653 30.2375 61.2205 26.5662C59.0756 22.8949 55.9945 19.8589 52.292 17.7683C51.7736 15.0202 50.3115 12.5394 48.1585 10.7546C46.0055 8.96971 43.2966 7.99292 40.5 7.99292C37.7034 7.99292 34.9945 8.96971 32.8415 10.7546C30.6885 12.5394 29.2264 15.0202 28.708 17.7683C25.0055 19.8589 21.9244 22.8949 19.7795 26.5662C17.6347 30.2375 16.503 34.4124 16.5 38.6643V48.0937C14.2787 48.4143 12.2473 49.5246 10.7781 51.2211C9.30882 52.9176 8.50007 55.0867 8.5 57.331L8.5 62.6643C8.5 65.1397 9.48333 67.5137 11.2337 69.264C12.984 71.0144 15.358 71.9977 17.8333 71.9977H23.1667C25.642 71.9977 28.016 71.0144 29.7663 69.264C31.5167 67.5137 32.5 65.1397 32.5 62.6643V57.331C32.4999 55.0867 31.6912 52.9176 30.2219 51.2211C28.7527 49.5246 26.7213 48.4143 24.5 48.0937V38.6643C24.4996 36.3076 25.0209 33.98 26.0264 31.8486C27.032 29.7171 28.4969 27.8347 30.316 26.3363C31.3939 28.0658 32.8944 29.4922 34.6762 30.4812C36.4579 31.4702 38.4622 31.9892 40.5 31.9892C42.5378 31.9892 44.5421 31.4702 46.3238 30.4812C48.1056 29.4922 49.6061 28.0658 50.684 26.3363C52.5031 27.8347 53.968 29.7171 54.9736 31.8486C55.9791 33.98 56.5004 36.3076 56.5 38.6643V48.0937C54.2787 48.4143 52.2473 49.5246 50.7781 51.2211C49.3088 52.9176 48.5001 55.0867 48.5 57.331V62.6643C48.5 65.1397 49.4833 67.5137 51.2337 69.264C52.984 71.0144 55.358 71.9977 57.8333 71.9977H63.1667C65.642 71.9977 68.016 71.0144 69.7663 69.264C71.5167 67.5137 72.5 65.1397 72.5 62.6643V57.331C72.4999 55.0867 71.6912 52.9176 70.2219 51.2211C68.7527 49.5246 66.7213 48.4143 64.5 48.0937ZM24.5 62.6643C24.5 63.018 24.3595 63.3571 24.1095 63.6072C23.8594 63.8572 23.5203 63.9977 23.1667 63.9977H17.8333C17.4797 63.9977 17.1406 63.8572 16.8905 63.6072C16.6405 63.3571 16.5 63.018 16.5 62.6643V57.331C16.5 56.9774 16.6405 56.6383 16.8905 56.3882C17.1406 56.1382 17.4797 55.9977 17.8333 55.9977H23.1667C23.5203 55.9977 23.8594 56.1382 24.1095 56.3882C24.3595 56.6383 24.5 56.9774 24.5 57.331V62.6643ZM40.5 23.9977C39.7089 23.9977 38.9355 23.7631 38.2777 23.3236C37.6199 22.884 37.1072 22.2593 36.8045 21.5284C36.5017 20.7975 36.4225 19.9932 36.5769 19.2173C36.7312 18.4414 37.1122 17.7287 37.6716 17.1693C38.231 16.6098 38.9437 16.2289 39.7196 16.0745C40.4956 15.9202 41.2998 15.9994 42.0307 16.3022C42.7616 16.6049 43.3864 17.1176 43.8259 17.7754C44.2654 18.4332 44.5 19.2066 44.5 19.9977C44.5 21.0585 44.0786 22.076 43.3284 22.8261C42.5783 23.5763 41.5609 23.9977 40.5 23.9977ZM64.5 62.6643C64.5 63.018 64.3595 63.3571 64.1095 63.6072C63.8594 63.8572 63.5203 63.9977 63.1667 63.9977H57.8333C57.4797 63.9977 57.1406 63.8572 56.8905 63.6072C56.6405 63.3571 56.5 63.018 56.5 62.6643V57.331C56.5 56.9774 56.6405 56.6383 56.8905 56.3882C57.1406 56.1382 57.4797 55.9977 57.8333 55.9977H63.1667C63.5203 55.9977 63.8594 56.1382 64.1095 56.3882C64.3595 56.6383 64.5 56.9774 64.5 57.331V62.6643Z" fill="#B956BF"/>
</g>
<rect x="1" y="0.5" width="79" height="79" rx="7.5" stroke="#FDD3FF"/>
<defs>
<clipPath id="clip0_72_238">
<rect width="64" height="64" fill="white" transform="translate(8.5 8)"/>
</clipPath>
</defs>
</svg>
