<svg width="81" height="80" viewBox="0 0 81 80" fill="none" xmlns="http://www.w3.org/2000/svg">
<rect x="1" y="0.5" width="79" height="79" rx="7.5" fill="white"/>
<path d="M36.1987 9.4398C35.0835 8.75816 33.6587 8.87926 32.6723 9.73082C31.685 10.5843 31.3627 11.9769 31.8744 13.1782C35.3862 21.4088 34.4595 25.323 33.5952 26.9226C32.6849 28.6063 31.1928 29.0379 30.5941 29.1454C28.9896 29.4305 27.7512 26.237 27.7454 26.2214C27.3567 25.1003 26.345 24.3132 25.1624 24.2136C23.969 24.1316 22.8507 24.7214 22.2804 25.7605C16.9824 35.417 15.5899 44.4856 18.1406 52.7143C21.8898 64.8083 32.8177 70.4453 33.2817 70.6797C33.7095 70.8965 34.1704 71 34.6294 71C35.3501 71 36.064 70.7402 36.6255 70.2422C37.5464 69.4237 37.8727 68.1229 37.4507 66.9666C36.5386 64.4685 34.9116 57.2125 38.2819 53.6792C40.3444 51.5171 41.7711 49.5443 42.7576 47.8451C50.7977 60.4743 46.5096 64.447 46.4246 64.5349C46.409 64.5446 46.3933 64.5564 46.3777 64.5661C45.0291 65.5096 44.6922 67.3651 45.6238 68.7225C46.5545 70.0801 48.4081 70.4316 49.7714 69.5155C49.7831 69.5077 49.7987 69.4959 49.8173 69.4842C59.5578 62.6696 64.3597 54.7534 64.0872 45.9563C63.4817 26.3347 37.312 10.1214 36.1987 9.4398ZM53.4688 58.2496C52.7481 52.98 49.7011 46.7533 44.365 39.6612C43.5935 38.6358 42.2545 38.2198 41.0368 38.6144C39.817 39.0128 38.986 40.1417 38.9674 41.4249C38.9674 41.4524 38.5563 44.6985 33.94 49.5384C30.8061 52.8237 30.1137 57.232 30.2768 61.0271C27.8167 58.6461 25.2005 55.2671 23.8528 50.8763C22.2111 45.5246 22.717 39.5948 25.3509 33.1962C26.9339 34.6064 29.0404 35.5205 31.6488 35.0517C34.7261 34.5029 37.3589 32.579 38.8737 29.7762C40.3512 27.0417 40.7565 23.6374 40.0924 19.6002C47.3808 25.3972 57.7668 35.4931 58.091 46.1496C58.2189 50.3783 56.6691 54.4272 53.4688 58.2496Z" fill="#B956BF"/>
<rect x="1" y="0.5" width="79" height="79" rx="7.5" stroke="#FDD3FF"/>
</svg>
