<svg width="81" height="80" viewBox="0 0 81 80" fill="none" xmlns="http://www.w3.org/2000/svg">
<rect x="1.00439" y="0.5" width="78.9915" height="79" rx="7.5" fill="white"/>
<g clip-path="url(#clip0_72_221)">
<path d="M61.7992 7.99756C61.243 8.00643 60.7123 8.23218 60.3201 8.62668L56.0538 12.893C55.8544 13.0912 55.6963 13.3269 55.5883 13.5864C55.4803 13.846 55.4247 14.1243 55.4246 14.4054V22.0507L54.2581 23.2172C49.2505 18.9309 42.8668 16.5303 36.2303 16.5303C20.94 16.5303 8.49902 28.9713 8.49902 44.2615C8.49902 59.5518 20.94 71.9926 36.2303 71.9927C51.5205 71.9927 63.9573 59.5518 63.9573 44.2615C63.9573 39.1719 62.5598 34.1841 59.9118 29.8376C59.7736 29.5837 59.5852 29.3606 59.3581 29.1818C59.1311 29.0029 58.87 28.8721 58.5908 28.7972C58.3116 28.7224 58.0201 28.705 57.734 28.7462C57.4479 28.7874 57.1732 28.8863 56.9265 29.037C56.6798 29.1876 56.4662 29.3867 56.2989 29.6224C56.1315 29.8581 56.0138 30.1253 55.9528 30.4078C55.8918 30.6904 55.8889 30.9824 55.9442 31.2661C55.9995 31.5498 56.1119 31.8193 56.2746 32.0582C58.5155 35.7363 59.691 39.9546 59.691 44.2615C59.691 57.2461 49.2148 67.7264 36.2303 67.7264C23.2456 67.7264 12.7654 57.246 12.7654 44.2615C12.7654 31.2769 23.2456 20.8008 36.2303 20.8008C41.7361 20.8007 47.0351 22.7478 51.2333 26.242L48.2044 29.271C44.8193 26.5671 40.6048 25.0671 36.2303 25.0671C25.6526 25.0671 17.0318 33.6838 17.0317 44.2615C17.0317 54.8393 25.6525 63.4559 36.2303 63.4559C46.8079 63.4559 55.4246 54.8393 55.4246 44.2615C55.4246 41.5411 54.8554 38.8505 53.7373 36.3704C53.625 36.1095 53.4618 35.8736 53.2572 35.6766C53.0527 35.4795 52.8108 35.3253 52.5459 35.2228C52.281 35.1204 51.9983 35.0718 51.7144 35.08C51.4305 35.0882 51.151 35.153 50.8924 35.2705C50.6338 35.388 50.4013 35.5559 50.2084 35.7644C50.0155 35.9729 49.8661 36.2178 49.7691 36.4847C49.672 36.7517 49.6292 37.0353 49.6431 37.319C49.657 37.6027 49.7274 37.8808 49.8501 38.137C50.7197 40.066 51.1541 42.1456 51.1541 44.2615C51.1541 52.5335 44.5023 59.2062 36.2303 59.2062C27.9582 59.2062 21.2981 52.5335 21.2981 44.2615C21.2981 35.9895 27.9582 29.3335 36.2303 29.3335C39.4679 29.3335 42.5889 30.4024 45.1546 32.3166L42.1048 35.3663C40.3733 34.2247 38.3355 33.5998 36.2303 33.5998C30.365 33.5998 25.5686 38.3962 25.5686 44.2615C25.5686 50.1268 30.365 54.9398 36.2303 54.9398C42.0956 54.9398 46.8878 50.1268 46.8878 44.2615C46.9143 43.9664 46.879 43.6691 46.7843 43.3884C46.6895 43.1077 46.5374 42.8498 46.3375 42.6312C46.1376 42.4125 45.8944 42.2379 45.6233 42.1184C45.3522 41.999 45.0592 41.9373 44.7629 41.9373C44.4667 41.9373 44.1737 41.999 43.9026 42.1184C43.6315 42.2379 43.3883 42.4125 43.1884 42.6312C42.9885 42.8498 42.8364 43.1077 42.7416 43.3884C42.6469 43.6691 42.6116 43.9664 42.6381 44.2615C42.6381 47.8211 39.7898 50.6693 36.2303 50.6693C32.6706 50.6693 29.8349 47.8211 29.8349 44.2615C29.8349 40.7019 32.6706 37.8704 36.2303 37.8703C37.1869 37.8703 38.1128 38.1023 38.9634 38.5036L34.7179 42.7491C34.5122 42.9458 34.3478 43.1816 34.2344 43.4427C34.1211 43.7038 34.061 43.9849 34.0577 44.2696C34.0544 44.5542 34.108 44.8366 34.2153 45.1003C34.3226 45.3639 34.4815 45.6035 34.6827 45.8049C34.8838 46.0063 35.1231 46.1655 35.3866 46.2732C35.6501 46.3809 35.9325 46.4349 36.2171 46.432C36.5017 46.4291 36.7829 46.3694 37.0441 46.2564C37.3054 46.1434 37.5415 45.9793 37.7385 45.7739L43.4006 40.1118C43.7076 39.9295 43.9641 39.6731 44.1463 39.366L49.4334 34.0789C49.7405 33.8967 49.9969 33.6402 50.1792 33.3331L55.6955 27.8169C55.7969 27.7327 55.8904 27.6392 55.9746 27.5378L58.4452 25.0671H66.0988C66.6608 25.0626 67.1983 24.8365 67.5946 24.438L71.8651 20.1675C72.2624 19.7678 72.4855 19.227 72.4855 18.6634C72.4855 18.0998 72.2624 17.5591 71.8651 17.1594L67.8362 13.1263C67.7052 12.9443 67.5463 12.784 67.3654 12.6514L63.3449 8.62668C63.1427 8.42333 62.9017 8.26281 62.6361 8.15471C62.3705 8.04662 62.0859 7.99317 61.7992 7.99756ZM61.8324 13.1472L63.0823 14.3971L59.6909 17.7885V15.2887L61.8324 13.1472ZM66.0988 17.4135L67.3445 18.6593L65.2197 20.8008H62.7115L66.0988 17.4135Z" fill="#B956BF"/>
</g>
<rect x="1.00439" y="0.5" width="78.9915" height="79" rx="7.5" stroke="#FDD3FF"/>
<defs>
<clipPath id="clip0_72_221">
<rect width="63.9915" height="64" fill="white" transform="translate(8.50439 8)"/>
</clipPath>
</defs>
</svg>
