<svg width="81" height="80" viewBox="0 0 81 80" fill="none" xmlns="http://www.w3.org/2000/svg">
<rect x="1" y="0.5" width="79" height="79" rx="7.5" fill="white"/>
<path d="M57.2999 30.9067L59.7266 28.5067C60.2287 28.0046 60.5108 27.3236 60.5108 26.6134C60.5108 25.9033 60.2287 25.2222 59.7266 24.7201C59.2244 24.2179 58.5434 23.9358 57.8332 23.9358C57.1231 23.9358 56.4421 24.2179 55.9399 24.7201L53.5399 27.1467C49.8027 24.2557 45.2115 22.6871 40.4866 22.6871C35.7617 22.6871 31.1704 24.2557 27.4332 27.1467L25.0066 24.6934C24.5009 24.1913 23.8165 23.9106 23.1038 23.9131C22.3912 23.9156 21.7087 24.2011 21.2066 24.7067C20.7044 25.2124 20.4237 25.8969 20.4262 26.6095C20.4287 27.3221 20.7142 28.0046 21.2199 28.5067L23.6732 30.9334C20.7479 34.6602 19.1607 39.2623 19.1666 44.0001C19.1579 47.4012 19.9625 50.7551 21.5133 53.7821C23.0641 56.8091 25.3162 59.4214 28.0818 61.4012C30.8473 63.381 34.0461 64.6709 37.4114 65.1633C40.7767 65.6557 44.211 65.3363 47.4278 64.2318C50.6446 63.1273 53.5507 61.2697 55.9037 58.8138C58.2567 56.358 59.9885 53.3752 60.9545 50.1142C61.9206 46.8531 62.0929 43.4083 61.4572 40.0671C60.8215 36.7259 59.3961 33.5852 57.2999 30.9067ZM40.4999 60.0001C37.3354 60.0001 34.242 59.0617 31.6108 57.3036C28.9796 55.5455 26.9288 53.0466 25.7178 50.123C24.5068 47.1994 24.19 43.9823 24.8073 40.8786C25.4247 37.7749 26.9486 34.924 29.1862 32.6864C31.4238 30.4487 34.2748 28.9249 37.3785 28.3075C40.4822 27.6902 43.6992 28.007 46.6228 29.218C49.5465 30.429 52.0453 32.4798 53.8034 35.111C55.5615 37.7421 56.4999 40.8356 56.4999 44.0001C56.4999 48.2435 54.8142 52.3132 51.8136 55.3138C48.813 58.3144 44.7434 60.0001 40.4999 60.0001ZM35.1666 20.0001H45.8332C46.5405 20.0001 47.2188 19.7191 47.7189 19.219C48.219 18.7189 48.4999 18.0407 48.4999 17.3334C48.4999 16.6262 48.219 15.9479 47.7189 15.4478C47.2188 14.9477 46.5405 14.6667 45.8332 14.6667H35.1666C34.4593 14.6667 33.7811 14.9477 33.281 15.4478C32.7809 15.9479 32.4999 16.6262 32.4999 17.3334C32.4999 18.0407 32.7809 18.7189 33.281 19.219C33.7811 19.7191 34.4593 20.0001 35.1666 20.0001ZM43.1666 36.0001C43.1666 35.2928 42.8856 34.6146 42.3855 34.1145C41.8854 33.6144 41.2072 33.3334 40.4999 33.3334C39.7927 33.3334 39.1144 33.6144 38.6143 34.1145C38.1142 34.6146 37.8332 35.2928 37.8332 36.0001V41.0401C37.2294 41.5802 36.8038 42.2908 36.6128 43.0781C36.4217 43.8653 36.4742 44.692 36.7632 45.4488C37.0523 46.2056 37.5643 46.8567 38.2316 47.3161C38.8988 47.7755 39.6898 48.0215 40.4999 48.0215C41.31 48.0215 42.101 47.7755 42.7683 47.3161C43.4355 46.8567 43.9475 46.2056 44.2366 45.4488C44.5257 44.692 44.5781 43.8653 44.3871 43.0781C44.196 42.2908 43.7704 41.5802 43.1666 41.0401V36.0001Z" fill="#B956BF"/>
<rect x="1" y="0.5" width="79" height="79" rx="7.5" stroke="#FDD3FF"/>
</svg>
