<svg width="81" height="80" viewBox="0 0 81 80" fill="none" xmlns="http://www.w3.org/2000/svg">
<rect x="1" y="0.5" width="79" height="79" rx="7.5" fill="white"/>
<path d="M56.5 26.6667H55.5667C56.1752 25.4207 56.4943 24.0533 56.5 22.6667C56.5081 20.8089 55.9599 18.9912 54.9262 17.4476C53.8924 15.9039 52.4203 14.705 50.6993 14.0052C48.9784 13.3053 47.0873 13.1366 45.2696 13.5206C43.452 13.9046 41.7908 14.8239 40.5 16.16C39.2092 14.8239 37.548 13.9046 35.7304 13.5206C33.9127 13.1366 32.0216 13.3053 30.3007 14.0052C28.5797 14.705 27.1076 15.9039 26.0738 17.4476C25.0401 18.9912 24.4919 20.8089 24.5 22.6667C24.5057 24.0533 24.8248 25.4207 25.4333 26.6667H24.5C22.3783 26.6667 20.3434 27.5095 18.8431 29.0098C17.3429 30.5101 16.5 32.545 16.5 34.6667V40C16.5 40.7073 16.781 41.3855 17.281 41.8856C17.7811 42.3857 18.4594 42.6667 19.1667 42.6667H21.8333V58.6667C21.8333 60.7884 22.6762 62.8233 24.1765 64.3235C25.6768 65.8238 27.7116 66.6667 29.8333 66.6667H51.1667C53.2884 66.6667 55.3232 65.8238 56.8235 64.3235C58.3238 62.8233 59.1667 60.7884 59.1667 58.6667V42.6667H61.8333C62.5406 42.6667 63.2189 42.3857 63.719 41.8856C64.2191 41.3855 64.5 40.7073 64.5 40V34.6667C64.5 32.545 63.6571 30.5101 62.1569 29.0098C60.6566 27.5095 58.6217 26.6667 56.5 26.6667ZM37.8333 61.3334H29.8333C29.1261 61.3334 28.4478 61.0524 27.9477 60.5523C27.4476 60.0522 27.1667 59.3739 27.1667 58.6667V42.6667H37.8333V61.3334ZM37.8333 37.3334H21.8333V34.6667C21.8333 33.9594 22.1143 33.2812 22.6144 32.7811C23.1145 32.281 23.7928 32 24.5 32H37.8333V37.3334ZM37.8333 26.6667H33.8333C33.0422 26.6667 32.2689 26.4321 31.6111 25.9926C30.9533 25.553 30.4406 24.9283 30.1378 24.1974C29.8351 23.4665 29.7559 22.6622 29.9102 21.8863C30.0645 21.1104 30.4455 20.3977 31.0049 19.8383C31.5643 19.2788 32.277 18.8979 33.053 18.7435C33.8289 18.5892 34.6332 18.6684 35.3641 18.9712C36.095 19.2739 36.7197 19.7866 37.1592 20.4444C37.5987 21.1022 37.8333 21.8756 37.8333 22.6667V26.6667ZM43.1667 22.6667C43.1667 21.8756 43.4013 21.1022 43.8408 20.4444C44.2803 19.7866 44.905 19.2739 45.6359 18.9712C46.3668 18.6684 47.1711 18.5892 47.947 18.7435C48.723 18.8979 49.4357 19.2788 49.9951 19.8383C50.5545 20.3977 50.9355 21.1104 51.0898 21.8863C51.2441 22.6622 51.1649 23.4665 50.8622 24.1974C50.5594 24.9283 50.0467 25.553 49.3889 25.9926C48.7312 26.4321 47.9578 26.6667 47.1667 26.6667H43.1667V22.6667ZM53.8333 58.6667C53.8333 59.3739 53.5524 60.0522 53.0523 60.5523C52.5522 61.0524 51.8739 61.3334 51.1667 61.3334H43.1667V42.6667H53.8333V58.6667ZM59.1667 37.3334H43.1667V32H56.5C57.2072 32 57.8855 32.281 58.3856 32.7811C58.8857 33.2812 59.1667 33.9594 59.1667 34.6667V37.3334Z" fill="#B956BF"/>
<rect x="1" y="0.5" width="79" height="79" rx="7.5" stroke="#FDD3FF"/>
</svg>
