<svg width="24" height="25" viewBox="0 0 24 25" fill="none" xmlns="http://www.w3.org/2000/svg">
<path d="M22 6.30021C21.2483 6.6263 20.4534 6.84187 19.64 6.94021C20.4982 6.42753 21.1413 5.62099 21.45 4.67021C20.6436 5.15027 19.7608 5.48851 18.84 5.67021C18.2245 5.00278 17.405 4.55851 16.5098 4.40706C15.6147 4.25562 14.6945 4.40557 13.8938 4.8334C13.093 5.26123 12.4569 5.94274 12.0852 6.77105C11.7135 7.59935 11.6273 8.5276 11.84 9.41021C10.2094 9.32774 8.61444 8.90316 7.15865 8.16407C5.70287 7.42498 4.41885 6.3879 3.39 5.12021C3.02914 5.75038 2.83952 6.46403 2.84 7.19021C2.83872 7.86459 3.00422 8.52883 3.32176 9.12377C3.63929 9.71872 4.09902 10.2259 4.66 10.6002C4.00798 10.5825 3.36989 10.4075 2.8 10.0902V10.1402C2.80489 11.0851 3.13599 11.9993 3.73731 12.7282C4.33864 13.457 5.17326 13.9559 6.1 14.1402C5.74326 14.2488 5.37287 14.306 5 14.3102C4.74189 14.3072 4.48442 14.2838 4.23 14.2402C4.49391 15.053 5.00462 15.7634 5.69107 16.2724C6.37753 16.7814 7.20558 17.0638 8.06 17.0802C6.6172 18.2155 4.83588 18.8351 3 18.8402C2.66574 18.8413 2.33174 18.8213 2 18.7802C3.87443 19.9905 6.05881 20.6329 8.29 20.6302C9.82969 20.6462 11.3571 20.3552 12.7831 19.7743C14.2091 19.1934 15.505 18.3341 16.5952 17.2467C17.6854 16.1593 18.548 14.8656 19.1326 13.4411C19.7172 12.0166 20.012 10.4899 20 8.95021C20 8.78021 20 8.60021 20 8.42021C20.7847 7.83502 21.4615 7.11763 22 6.30021Z" fill="#8551C0"/>
</svg>
