<svg width="63" height="63" viewBox="0 0 63 63" fill="none" xmlns="http://www.w3.org/2000/svg">
<path d="M31.2311 61.6409C31.3249 61.7538 31.4425 61.8446 31.5754 61.907C31.7083 61.9693 31.8533 62.0016 32.0001 62.0016C32.1469 62.0016 32.2919 61.9693 32.4248 61.907C32.5577 61.8446 32.6752 61.7538 32.7691 61.6409L62.7691 25.6409C62.9166 25.4637 62.9983 25.2411 63.0005 25.0105C63.0027 24.78 62.9252 24.5558 62.7811 24.3759L54.7811 14.3759C54.6723 14.2425 54.5312 14.1392 54.3711 14.0759L44.3711 10.0759C44.2534 10.0272 44.1275 10.0014 44.0001 9.9999H24.1901C23.4579 9.73633 22.802 9.2963 22.2805 8.71878C21.759 8.14126 21.3879 7.44405 21.2001 6.6889L20.9671 5.7569C20.9129 5.54067 20.788 5.34875 20.6123 5.21161C20.4365 5.07448 20.22 5 19.9971 5C19.7742 5 19.5576 5.07448 19.3819 5.21161C19.2062 5.34875 19.0813 5.54067 19.0271 5.7569L18.7941 6.6889C18.6017 7.46673 18.2152 8.18308 17.6708 8.77102C17.1264 9.35897 16.4418 9.7993 15.6811 10.0509C15.5107 10.1068 15.3586 10.2079 15.241 10.3432C15.1234 10.4785 15.0445 10.6432 15.0128 10.8197C14.9812 10.9962 14.9978 11.178 15.0611 11.3458C15.1243 11.5136 15.2318 11.6612 15.3721 11.7729L9.62608 14.0729C9.466 14.1362 9.32483 14.2395 9.21608 14.3729L1.21608 24.3729C1.07196 24.5528 0.99444 24.777 0.996627 25.0075C0.998814 25.2381 1.08058 25.4607 1.22808 25.6379L31.2311 61.6409ZM12.0001 27.0219C11.5328 26.2291 10.9075 25.5409 10.1631 24.9999C10.9075 24.4589 11.5328 23.7707 12.0001 22.9779C12.4673 23.7707 13.0926 24.4589 13.8371 24.9999C13.0926 25.5409 12.4673 26.2291 12.0001 27.0219ZM10.8761 29.6279L11.0301 30.2429C11.0843 30.4591 11.2091 30.6511 11.3849 30.7882C11.5606 30.9254 11.7772 30.9999 12.0001 30.9999C12.1864 30.9984 12.3686 30.9443 12.5255 30.8438C12.6824 30.7433 12.8078 30.6005 12.8871 30.4319L16.2731 31.7869L27.2501 53.7379L5.30008 27.3999L10.8761 29.6279ZM20.7801 19.9999H43.2201L45.7201 29.9999H18.2791L20.7801 19.9999ZM58.7001 27.3999L36.7501 53.7379L47.7271 31.7869L58.7001 27.3999ZM32.0001 58.7639L18.6161 31.9999H45.3841L32.0001 58.7639ZM60.3771 24.5729L47.6941 29.6459L45.1821 19.5999L53.6821 16.1999L60.3771 24.5729ZM24.1901 11.9999H43.8081L51.3081 14.9999L43.8081 17.9999H20.1931L12.6931 14.9999L17.5101 13.0729C18.1389 13.6851 18.5855 14.4599 18.8001 15.3109L19.0331 16.2429C19.0873 16.4591 19.2122 16.651 19.3879 16.7882C19.5636 16.9253 19.7802 16.9998 20.0031 16.9998C20.226 16.9998 20.4425 16.9253 20.6183 16.7882C20.794 16.651 20.9189 16.4591 20.9731 16.2429L21.2061 15.3109C21.3933 14.5564 21.7635 13.8596 22.2839 13.2821C22.8044 12.7047 23.459 12.2643 24.1901 11.9999ZM20.0001 8.97789C20.4673 9.77068 21.0926 10.4589 21.8371 10.9999C21.0926 11.5409 20.4673 12.2291 20.0001 13.0219C19.5328 12.2291 18.9075 11.5409 18.1631 10.9999C18.9075 10.4589 19.5328 9.77068 20.0001 8.97789ZM10.3171 16.1999L18.8171 19.5999L16.3061 29.6459L13.4861 28.5179C13.7529 27.9162 14.1425 27.3769 14.6298 26.9345C15.1171 26.4922 15.6915 26.1564 16.3161 25.9489C16.5161 25.8831 16.6903 25.7559 16.8138 25.5853C16.9373 25.4147 17.0038 25.2095 17.0038 24.9989C17.0038 24.7883 16.9373 24.5831 16.8138 24.4125C16.6903 24.2419 16.5161 24.1147 16.3161 24.0489C15.555 23.7979 14.87 23.3581 14.3251 22.7705C13.7801 22.1829 13.3931 21.4667 13.2001 20.6889L12.9671 19.7569C12.9129 19.5407 12.788 19.3487 12.6123 19.2116C12.4365 19.0745 12.22 19 11.9971 19C11.7742 19 11.5576 19.0745 11.3819 19.2116C11.2062 19.3487 11.0813 19.5407 11.0271 19.7569L10.7941 20.6889C10.6017 21.4667 10.2152 22.1831 9.67079 22.771C9.12639 23.359 8.44183 23.7993 7.68108 24.0509C7.48101 24.1167 7.30681 24.2439 7.18331 24.4145C7.05982 24.5851 6.99333 24.7903 6.99333 25.0009C6.99333 25.2115 7.05982 25.4167 7.18331 25.5873C7.30681 25.7579 7.48101 25.8851 7.68108 25.9509C8.25234 26.1403 8.78241 26.4366 9.24308 26.8239L3.62008 24.5739L10.3171 16.1999ZM58.2001 1.68889L57.9671 0.756895C57.9129 0.540668 57.788 0.348747 57.6123 0.211614C57.4365 0.0744812 57.22 0 56.9971 0C56.7742 0 56.5576 0.0744812 56.3819 0.211614C56.2062 0.348747 56.0813 0.540668 56.0271 0.756895L55.7941 1.68889C55.6017 2.46672 55.2152 3.18308 54.6708 3.77102C54.1264 4.35897 53.4418 4.79931 52.6811 5.0509C52.481 5.11665 52.3068 5.2439 52.1833 5.41449C52.0598 5.58507 51.9933 5.7903 51.9933 6.0009C51.9933 6.21149 52.0598 6.41672 52.1833 6.5873C52.3068 6.75789 52.481 6.88514 52.6811 6.9509C53.4427 7.20145 54.1283 7.6411 54.6738 8.22873C55.2193 8.81636 55.6068 9.53276 55.8001 10.3109L56.0331 11.2429C56.0873 11.4591 56.2122 11.651 56.3879 11.7882C56.5636 11.9253 56.7802 11.9998 57.0031 11.9998C57.226 11.9998 57.4425 11.9253 57.6183 11.7882C57.794 11.651 57.9189 11.4591 57.9731 11.2429L58.2061 10.3109C58.3985 9.53306 58.785 8.81671 59.3294 8.22877C59.8738 7.64082 60.5583 7.20048 61.3191 6.94889C61.5191 6.88314 61.6933 6.75589 61.8168 6.5853C61.9403 6.41472 62.0068 6.20949 62.0068 5.9989C62.0068 5.7883 61.9403 5.58307 61.8168 5.41249C61.6933 5.2419 61.5191 5.11465 61.3191 5.04889C60.5574 4.79834 59.8718 4.35869 59.3263 3.77106C58.7809 3.18343 58.3934 2.46703 58.2001 1.68889ZM57.0001 8.0219C56.5328 7.22911 55.9075 6.54086 55.1631 5.9999C55.9075 5.45893 56.5328 4.77068 57.0001 3.9779C57.4674 4.77068 58.0926 5.45893 58.8371 5.9999C58.0926 6.54086 57.4674 7.22911 57.0001 8.0219ZM45.8001 57.3109L46.0331 58.2429C46.0873 58.4591 46.2122 58.651 46.3879 58.7882C46.5636 58.9253 46.7802 58.9998 47.0031 58.9998C47.226 58.9998 47.4425 58.9253 47.6183 58.7882C47.794 58.651 47.9189 58.4591 47.9731 58.2429L48.2061 57.3099C48.3989 56.5323 48.7855 55.8161 49.3299 55.2282C49.8742 54.6404 50.5586 54.1999 51.3191 53.9479C51.5191 53.8821 51.6933 53.7549 51.8168 53.5843C51.9403 53.4137 52.0068 53.2085 52.0068 52.9979C52.0068 52.7873 51.9403 52.5821 51.8168 52.4115C51.6933 52.2409 51.5191 52.1137 51.3191 52.0479C50.5578 51.797 49.8725 51.3574 49.3271 50.77C48.7817 50.1826 48.3939 49.4667 48.2001 48.6889L47.9671 47.7569C47.9129 47.5407 47.788 47.3488 47.6123 47.2116C47.4365 47.0745 47.22 47 46.9971 47C46.7742 47 46.5576 47.0745 46.3819 47.2116C46.2062 47.3488 46.0813 47.5407 46.0271 47.7569L45.7941 48.6899C45.6012 49.4675 45.2146 50.1837 44.6703 50.7715C44.1259 51.3594 43.4416 51.7999 42.6811 52.0519C42.481 52.1177 42.3068 52.2449 42.1833 52.4155C42.0598 52.5861 41.9933 52.7913 41.9933 53.0019C41.9933 53.2125 42.0598 53.4177 42.1833 53.5883C42.3068 53.7589 42.481 53.8861 42.6811 53.9519C43.4424 54.2028 44.1277 54.6424 44.6731 55.2298C45.2185 55.8172 45.6062 56.5331 45.8001 57.3109ZM47.0001 50.9779C47.4674 51.7707 48.0926 52.4589 48.8371 52.9999C48.0926 53.5409 47.4674 54.2291 47.0001 55.0219C46.5328 54.2291 45.9075 53.5409 45.1631 52.9999C45.9075 52.4589 46.5328 51.7707 47.0001 50.9779Z" fill="white"/>
</svg>
